<svg version="1" xmlns="http://www.w3.org/2000/svg" width="1280" height="1280" viewBox="0 0 960.000000 960.000000"><path d="M421.6 145.8c-16.5 27.3-52.5 87.3-80.1 133.2-55.3 91.9-205.8 342.2-250.8 417.1-15.8 26.2-28.9 48.3-29.3 49.2-.6 1.6 2.4 1.7 41.2 1.5l41.8-.3 23.3-40.5c24.3-42.3 26.6-46.3 85-151 19.8-35.5 51.2-91.7 69.8-125 18.6-33.3 41.3-74 50.5-90.5 9.2-16.5 30.8-55.2 48-86 17.2-30.8 44-78.8 59.6-106.8L508.9 96h-57.4l-29.9 49.8zM524.6 132.8c-6 10.8-20.5 36.8-32.1 57.7-11.7 20.9-44.1 78.9-72 129-27.9 50-60.6 108.5-72.5 130-93.1 166.7-110.9 198.9-110.4 199.6.3.5 14.8.9 32.3.9 29 0 31.9-.2 33.3-1.8.8-.9 15.1-25.6 31.8-54.7 16.7-29.2 51.9-90.6 78.3-136.5 26.3-45.9 64.6-112.6 85.1-148.2 20.4-35.6 37.5-64.7 37.9-64.5.5.1 75.7 135 167.2 299.7C795 708.7 870.3 843.6 870.8 843.8c.5.1 9.5-17.8 20-39.8 16.8-35.1 19-40.4 18.1-42.3C907.6 759.2 873 699 799 570c-27.3-47.6-76.9-134-110.2-192s-81.1-141.3-106.2-185c-25.1-43.7-46-79.6-46.4-79.7-.4-.1-5.6 8.6-11.6 19.5z"/><path d="M517.4 339.2c-9.8 17.2-18 32-18.2 32.9-.2.9 21.2 39.2 47.6 85 26.3 45.9 70.1 122.1 97.2 169.4 27.1 47.3 57.8 100.8 68.2 118.8 10.3 18 18.8 33 18.8 33.2 0 .3-151.4.5-336.5.5s-336.5.4-336.5.8c0 .5 8.9 19.5 19.8 42.3l19.9 41.4 373.7.3 373.8.2-2-3.2C842.1 859 773 734.4 689.5 584c-83.5-150.4-152.3-274.1-153-274.8-.8-1-5.1 5.8-19.1 30z"/><path d="M440.5 473.2c-21.4 37.4-52.8 92.2-69.7 121.6-16.9 29.4-30.5 53.9-30.2 54.4.3.4 63 .8 139.4.8s139.1-.4 139.4-.8c.3-.5-13.3-25-30.2-54.4s-48.2-84.2-69.7-121.6c-21.4-37.5-39.2-68.1-39.5-68.1-.3 0-18 30.6-39.5 68.1zM218.2 682.3c-.6.7-9.2 15.4-19.1 32.7l-18 31.5 247.1.3c135.9.1 247.3 0 247.5-.2.2-.2-8-15.1-18.3-33L638.7 681H429c-168.7 0-210 .2-210.8 1.3z"/></svg>